<?xml version="1.0" encoding="UTF-8"?>
<!-- Tapete de calibração "50 x 100 cm" (perfil "tapete_500x1000").
     IMPRIMIR/PLOTAR EM ESCALA 100% - NÃO AJUSTAR À PÁGINA.
     Dimensões reais: 500 x 1000 mm. -->
<svg xmlns="http://www.w3.org/2000/svg" width="500mm" height="1000mm"
     viewBox="0 0 500 1000">
  <rect x="0" y="0" width="500" height="1000" fill="white" />
  <rect x="1" y="1" width="498" height="998" fill="none"
        stroke="#cccccc" stroke-width="1" stroke-dasharray="6 4" />
  
  <g transform="translate(30 30) scale(10)">
    <rect x="0" y="0" width="10" height="10" fill="white"/><rect x="1" y="1" width="8" height="8" fill="black"/><rect x="2" y="2" width="1" height="1" fill="white"/><rect x="3" y="2" width="1" height="1" fill="white"/><rect x="5" y="2" width="1" height="1" fill="white"/><rect x="2" y="3" width="1" height="1" fill="white"/><rect x="4" y="3" width="1" height="1" fill="white"/><rect x="6" y="3" width="1" height="1" fill="white"/><rect x="7" y="3" width="1" height="1" fill="white"/><rect x="3" y="4" width="1" height="1" fill="white"/><rect x="4" y="4" width="1" height="1" fill="white"/><rect x="2" y="5" width="1" height="1" fill="white"/><rect x="3" y="5" width="1" height="1" fill="white"/><rect x="4" y="5" width="1" height="1" fill="white"/><rect x="6" y="5" width="1" height="1" fill="white"/><rect x="6" y="6" width="1" height="1" fill="white"/><rect x="3" y="7" width="1" height="1" fill="white"/><rect x="4" y="7" width="1" height="1" fill="white"/><rect x="5" y="7" width="1" height="1" fill="white"/><rect x="7" y="7" width="1" height="1" fill="white"/>
  </g>
  <text x="80" y="140" font-family="Arial" font-size="7"
        text-anchor="middle" fill="#999">ID 0</text>
  <g transform="translate(370 30) scale(10)">
    <rect x="0" y="0" width="10" height="10" fill="white"/><rect x="1" y="1" width="8" height="8" fill="black"/><rect x="3" y="2" width="1" height="1" fill="white"/><rect x="4" y="2" width="1" height="1" fill="white"/><rect x="5" y="4" width="1" height="1" fill="white"/><rect x="3" y="5" width="1" height="1" fill="white"/><rect x="6" y="5" width="1" height="1" fill="white"/><rect x="7" y="5" width="1" height="1" fill="white"/><rect x="3" y="6" width="1" height="1" fill="white"/><rect x="6" y="6" width="1" height="1" fill="white"/><rect x="7" y="6" width="1" height="1" fill="white"/><rect x="2" y="7" width="1" height="1" fill="white"/><rect x="5" y="7" width="1" height="1" fill="white"/><rect x="7" y="7" width="1" height="1" fill="white"/>
  </g>
  <text x="420" y="140" font-family="Arial" font-size="7"
        text-anchor="middle" fill="#999">ID 1</text>
  <g transform="translate(370 870) scale(10)">
    <rect x="0" y="0" width="10" height="10" fill="white"/><rect x="1" y="1" width="8" height="8" fill="black"/><rect x="5" y="2" width="1" height="1" fill="white"/><rect x="2" y="3" width="1" height="1" fill="white"/><rect x="3" y="4" width="1" height="1" fill="white"/><rect x="4" y="4" width="1" height="1" fill="white"/><rect x="6" y="4" width="1" height="1" fill="white"/><rect x="7" y="4" width="1" height="1" fill="white"/><rect x="2" y="5" width="1" height="1" fill="white"/><rect x="3" y="5" width="1" height="1" fill="white"/><rect x="4" y="5" width="1" height="1" fill="white"/><rect x="6" y="5" width="1" height="1" fill="white"/><rect x="7" y="5" width="1" height="1" fill="white"/><rect x="2" y="6" width="1" height="1" fill="white"/><rect x="3" y="6" width="1" height="1" fill="white"/><rect x="4" y="6" width="1" height="1" fill="white"/><rect x="7" y="6" width="1" height="1" fill="white"/><rect x="2" y="7" width="1" height="1" fill="white"/><rect x="3" y="7" width="1" height="1" fill="white"/><rect x="6" y="7" width="1" height="1" fill="white"/>
  </g>
  <text x="420" y="980" font-family="Arial" font-size="7"
        text-anchor="middle" fill="#999">ID 2</text>
  <g transform="translate(30 870) scale(10)">
    <rect x="0" y="0" width="10" height="10" fill="white"/><rect x="1" y="1" width="8" height="8" fill="black"/><rect x="2" y="2" width="1" height="1" fill="white"/><rect x="3" y="2" width="1" height="1" fill="white"/><rect x="4" y="2" width="1" height="1" fill="white"/><rect x="5" y="2" width="1" height="1" fill="white"/><rect x="6" y="2" width="1" height="1" fill="white"/><rect x="7" y="2" width="1" height="1" fill="white"/><rect x="2" y="3" width="1" height="1" fill="white"/><rect x="3" y="3" width="1" height="1" fill="white"/><rect x="4" y="3" width="1" height="1" fill="white"/><rect x="2" y="4" width="1" height="1" fill="white"/><rect x="4" y="4" width="1" height="1" fill="white"/><rect x="6" y="4" width="1" height="1" fill="white"/><rect x="7" y="4" width="1" height="1" fill="white"/><rect x="3" y="5" width="1" height="1" fill="white"/><rect x="5" y="5" width="1" height="1" fill="white"/><rect x="6" y="5" width="1" height="1" fill="white"/><rect x="2" y="6" width="1" height="1" fill="white"/><rect x="3" y="6" width="1" height="1" fill="white"/><rect x="6" y="6" width="1" height="1" fill="white"/><rect x="2" y="7" width="1" height="1" fill="white"/><rect x="3" y="7" width="1" height="1" fill="white"/><rect x="5" y="7" width="1" height="1" fill="white"/>
  </g>
  <text x="80" y="980" font-family="Arial" font-size="7"
        text-anchor="middle" fill="#999">ID 3</text>
  
  
  <g transform="translate(144.4 906.8) scale(0.0515625)">
    <rect x="0" y="0" width="512" height="512" rx="96" fill="#2563eb"/>
    <g stroke="#ffffff" stroke-width="26" stroke-linecap="round" fill="none">
      <path d="M 96 170 L 96 96 L 170 96"/>
      <path d="M 342 96 L 416 96 L 416 170"/>
      <path d="M 96 342 L 96 416 L 170 416"/>
      <path d="M 342 416 L 416 416 L 416 342"/>
    </g>
    <rect x="196" y="196" width="120" height="120" rx="14" fill="none" stroke="#ffffff" stroke-width="16"/>
  </g>
  <text x="176.8" y="923.78" font-family="Arial" font-weight="bold"
        font-size="10.799999999999999" fill="#333">MoldeFlat</text>

  <text x="355.6" y="915.2" font-family="Arial" font-weight="bold"
        font-size="12" text-anchor="end" fill="#333">500 x 1000 mm</text>
  <text x="355.6" y="928.8" font-family="Arial"
        font-size="4.8" text-anchor="end" fill="#999">escala 100%</text>

</svg>
